<svg xmlns="http://www.w3.org/2000/svg" xmlns:xlink="http://www.w3.org/1999/xlink" viewBox="0 0 3000.79 2000.53"><defs><style>.cls-1{isolation:isolate;}.cls-2{fill:url(#radial-gradient);}.cls-3{fill:url(#linear-gradient);}.cls-4{fill:url(#linear-gradient-2);}.cls-5{fill:url(#linear-gradient-3);}.cls-10,.cls-12,.cls-6{mix-blend-mode:overlay;}.cls-6{fill:url(#radial-gradient-2);}.cls-7{fill:url(#linear-gradient-4);}.cls-8{fill:url(#radial-gradient-3);}.cls-9{fill:url(#radial-gradient-4);}.cls-11,.cls-12{fill:#fff;}.cls-12{opacity:0.43;}.cls-13{fill:url(#linear-gradient-5);}.cls-14{fill:url(#radial-gradient-5);}.cls-15{fill:url(#radial-gradient-6);}.cls-16{fill:url(#radial-gradient-7);}.cls-17{fill:url(#linear-gradient-6);}.cls-18{fill:url(#linear-gradient-7);}.cls-19{fill:url(#linear-gradient-8);}.cls-20{fill:url(#linear-gradient-9);}</style><radialGradient id="radial-gradient" cx="1434.38" cy="28.06" r="1912.12" gradientUnits="userSpaceOnUse"><stop offset="0" stop-color="#283479"/><stop offset="0.28" stop-color="#242c65"/><stop offset="0.73" stop-color="#1f2249"/><stop offset="1" stop-color="#1d1e3f"/></radialGradient><linearGradient id="linear-gradient" x1="1731.9" y1="1499.66" x2="3395.79" y2="1499.66" gradientUnits="userSpaceOnUse"><stop offset="0" stop-color="#134493"/><stop offset="0.34" stop-color="#193878"/><stop offset="0.76" stop-color="#202c5c"/><stop offset="1" stop-color="#222852"/></linearGradient><linearGradient id="linear-gradient-2" x1="2285.33" y1="1634.5" x2="2902.06" y2="1634.5" gradientUnits="userSpaceOnUse"><stop offset="0.01" stop-color="#f7ab6b"/><stop offset="0.52" stop-color="#ba549a"/><stop offset="1" stop-color="#4f348b"/></linearGradient><linearGradient id="linear-gradient-3" x1="1128.14" y1="562.99" x2="-74.57" y2="-61.3" xlink:href="#linear-gradient-2"/><radialGradient id="radial-gradient-2" cx="700.35" cy="-4.35" r="1215.1" gradientTransform="matrix(0.93, 0.36, -0.2, 0.54, 44.86, -250.97)" gradientUnits="userSpaceOnUse"><stop offset="0.69" stop-color="#e3cde5" stop-opacity="0"/><stop offset="0.99" stop-color="#fff"/></radialGradient><linearGradient id="linear-gradient-4" x1="-112.87" y1="1733.82" x2="1525.55" y2="1733.82" xlink:href="#linear-gradient-2"/><radialGradient id="radial-gradient-3" cx="558.43" cy="1427.43" r="318.41" gradientUnits="userSpaceOnUse"><stop offset="0.01" stop-color="#f7ab6b"/><stop offset="0.52" stop-color="#ba549a"/><stop offset="1" stop-color="#6c3e90"/></radialGradient><radialGradient id="radial-gradient-4" cx="2480.57" cy="1282.04" r="100.93" gradientTransform="matrix(0.61, -0.79, 0.6, 0.46, 204.32, 2663.75)" gradientUnits="userSpaceOnUse"><stop offset="0.01" stop-color="#f7ab6b"/><stop offset="0.11" stop-color="#f1a36f"/><stop offset="0.25" stop-color="#e28d7b"/><stop offset="0.42" stop-color="#c96a8e"/><stop offset="0.52" stop-color="#ba549a"/><stop offset="1" stop-color="#6c3e90"/></radialGradient><linearGradient id="linear-gradient-5" x1="1983.3" y1="484.22" x2="2263.37" y2="-174.62" xlink:href="#linear-gradient-2"/><radialGradient id="radial-gradient-5" cx="293.33" cy="483.79" r="81.78" gradientTransform="translate(325.84 -7.25) rotate(40.38) scale(1 0.82)" xlink:href="#radial-gradient-3"/><radialGradient id="radial-gradient-6" cx="2122.84" cy="364.97" r="68.04" gradientTransform="translate(203.45 1307.34) rotate(-33.03) scale(1 0.7)" xlink:href="#radial-gradient-3"/><radialGradient id="radial-gradient-7" cx="2076.54" cy="171.57" r="54.76" gradientTransform="matrix(0.97, -0.26, 0.17, 0.63, 377.45, 1014.54)" xlink:href="#radial-gradient-3"/><linearGradient id="linear-gradient-6" x1="2249.69" y1="695.82" x2="2263.69" y2="640.8" xlink:href="#linear-gradient-2"/><linearGradient id="linear-gradient-7" x1="2590.98" y1="266.35" x2="2546.96" y2="56.96" xlink:href="#linear-gradient-2"/><linearGradient id="linear-gradient-8" x1="1790.95" y1="1608.71" x2="1951.81" y2="1608.71" xlink:href="#linear-gradient"/><linearGradient id="linear-gradient-9" x1="370.25" y1="941.37" x2="-73.87" y2="669.3" xlink:href="#linear-gradient"/></defs><g class="cls-1"><g id="Layer_1" data-name="Layer 1"><rect class="cls-2" width="3000.79" height="2000.53"/><path class="cls-3" d="M1757.44,2000.53H3000.35V1014.29c-123.95-37.45-309.53-3.22-411.76,61.83-41.72,26.56-76.46,62-110.55,98.17-40.41,42.94-79.9,87.06-129,119.06-91.39,59.52-213.13,75.35-282.53,159.49-24.65,29.89-40.63,72.24-24.36,107.41,20.88,45.14,84.12,58.23,104.88,103.44,17.58,38.29-5.54,86.73-42.92,106.17s-83.66,14.36-122.09-2.91c-32.79-14.73-61.33-37.47-93.2-54.08s-70-26.89-103.67-14.39c-70.88,26.29-53.48,171.57-44.94,229.57A432.31,432.31,0,0,0,1757.44,2000.53Z" transform="translate(0.44)"/><path class="cls-4" d="M2474.46,1599.2c-49.26,63.17-158.85,70.09-184.52,146-17.27,51,16.51,106.64,59.87,138.62,80.91,59.67,191.78,64,289.1,38.77,72-18.67,141.67-53.28,191.07-108.9,63.45-71.45,87.61-175.78,62-267.85-25.65-92.3-129.31-219.61-235.89-213.72C2511.46,1340.08,2538.36,1517.25,2474.46,1599.2Z" transform="translate(0.44)"/><path class="cls-5" d="M1149.54,345.34c-5.1-38.78-18-77-40.79-108.77C1063.91,174.05,985.49,143,908.88,136S755.5,142.71,679.2,152.59s-155.23,15.81-229-6.08C371,123,303.73,68.16,256.44,0H-.44V251.78c56.22-13.73,117.42-7.39,171,13.32,87.06,33.63,157.24,100,219.46,169.53,53.76,60.09,104.28,124.57,170.12,171.1,58.75,41.52,128,67.16,199,78.61,58.5,9.43,119.34,9.32,176.09-7.72C1072.26,635.47,1168.18,487.19,1149.54,345.34Z" transform="translate(0.44)"/><path class="cls-6" d="M1149.54,345.34c-5.1-38.78-18-77-40.79-108.77C1063.91,174.05,985.49,143,908.88,136S755.5,142.71,679.2,152.59s-155.23,15.81-229-6.08C371,123,303.73,68.16,256.44,0H-.44V251.78c56.22-13.73,117.42-7.39,171,13.32,87.06,33.63,157.24,100,219.46,169.53,53.76,60.09,104.28,124.57,170.12,171.1,58.75,41.52,128,67.16,199,78.61,58.5,9.43,119.34,9.32,176.09-7.72C1072.26,635.47,1168.18,487.19,1149.54,345.34Z" transform="translate(0.44)"/><path class="cls-7" d="M1517.46,2000.53a220.42,220.42,0,0,0-14-36.34C1462,1880,1376.89,1822.73,1286,1799.3s-187.17-16.25-279,2.93c-106.24,22.19-222.5,58.93-318,7.42-60.94-32.87-99-95.08-141.08-150-44.57-58.12-97.33-111.18-161.06-147.27s-139.33-54.2-211.35-40.86C105.62,1484.43,45,1526.09-.44,1581.36v419.17Z" transform="translate(0.44)"/><path class="cls-8" d="M360.76,1627.76C384.82,1680.86,432,1723,487.4,1741c28.92,9.4,61.51,12.16,89.09-.66,25.83-12,44-36,58.49-60.51,38.92-65.7,58.89-149.49,25.88-218.35-34.6-72.17-150.54-121.19-227.14-90.11C342,1408.6,324.93,1548.71,360.76,1627.76Z" transform="translate(0.44)"/><path class="cls-9" d="M2455.15,1364.45c19.56,9.7,44.08,7.19,62.48-4.57,42.75-27.34,54.62-131.14-16-123.1C2455.16,1242.07,2402,1338.12,2455.15,1364.45Z" transform="translate(0.44)"/><g class="cls-10"><path class="cls-11" d="M2915.32,345.86a9.22,9.22,0,1,0,9.22,9.22A9.22,9.22,0,0,0,2915.32,345.86Z" transform="translate(0.44)"/><path class="cls-11" d="M2915.32,295.74a9.22,9.22,0,1,0,9.22,9.22A9.22,9.22,0,0,0,2915.32,295.74Z" transform="translate(0.44)"/><path class="cls-11" d="M2915.32,245.62a9.22,9.22,0,1,0,9.22,9.22A9.22,9.22,0,0,0,2915.32,245.62Z" transform="translate(0.44)"/><path class="cls-11" d="M2915.32,195.5a9.22,9.22,0,1,0,9.22,9.22A9.22,9.22,0,0,0,2915.32,195.5Z" transform="translate(0.44)"/><path class="cls-11" d="M2915.32,163.82a9.22,9.22,0,1,0-9.22-9.22A9.22,9.22,0,0,0,2915.32,163.82Z" transform="translate(0.44)"/><path class="cls-11" d="M2866.63,345.86a9.22,9.22,0,1,0,9.23,9.22A9.22,9.22,0,0,0,2866.63,345.86Z" transform="translate(0.44)"/><path class="cls-11" d="M2866.63,295.74a9.22,9.22,0,1,0,9.23,9.22A9.22,9.22,0,0,0,2866.63,295.74Z" transform="translate(0.44)"/><path class="cls-11" d="M2866.63,245.62a9.22,9.22,0,1,0,9.23,9.22A9.22,9.22,0,0,0,2866.63,245.62Z" transform="translate(0.44)"/><path class="cls-11" d="M2866.63,195.5a9.22,9.22,0,1,0,9.23,9.22A9.22,9.22,0,0,0,2866.63,195.5Z" transform="translate(0.44)"/><path class="cls-11" d="M2866.63,145.38a9.22,9.22,0,1,0,9.23,9.22A9.22,9.22,0,0,0,2866.63,145.38Z" transform="translate(0.44)"/><path class="cls-11" d="M2818,345.86a9.22,9.22,0,1,0,9.22,9.22A9.22,9.22,0,0,0,2818,345.86Z" transform="translate(0.44)"/><path class="cls-11" d="M2818,295.74a9.22,9.22,0,1,0,9.22,9.22A9.22,9.22,0,0,0,2818,295.74Z" transform="translate(0.44)"/><path class="cls-11" d="M2818,245.62a9.22,9.22,0,1,0,9.22,9.22A9.22,9.22,0,0,0,2818,245.62Z" transform="translate(0.44)"/><path class="cls-11" d="M2818,195.5a9.22,9.22,0,1,0,9.22,9.22A9.22,9.22,0,0,0,2818,195.5Z" transform="translate(0.44)"/><path class="cls-11" d="M2818,145.38a9.22,9.22,0,1,0,9.22,9.22A9.22,9.22,0,0,0,2818,145.38Z" transform="translate(0.44)"/><path class="cls-11" d="M2915.32,589.06a9.22,9.22,0,1,0,9.22,9.22A9.22,9.22,0,0,0,2915.32,589.06Z" transform="translate(0.44)"/><path class="cls-11" d="M2915.32,538.94a9.22,9.22,0,1,0,9.22,9.22A9.22,9.22,0,0,0,2915.32,538.94Z" transform="translate(0.44)"/><path class="cls-11" d="M2915.32,488.82a9.22,9.22,0,1,0,9.22,9.22A9.22,9.22,0,0,0,2915.32,488.82Z" transform="translate(0.44)"/><path class="cls-11" d="M2915.32,438.7a9.22,9.22,0,1,0,9.22,9.22A9.22,9.22,0,0,0,2915.32,438.7Z" transform="translate(0.44)"/><path class="cls-11" d="M2915.32,388.58a9.22,9.22,0,1,0,9.22,9.22A9.22,9.22,0,0,0,2915.32,388.58Z" transform="translate(0.44)"/><path class="cls-11" d="M2866.63,589.06a9.22,9.22,0,1,0,9.23,9.22A9.22,9.22,0,0,0,2866.63,589.06Z" transform="translate(0.44)"/><path class="cls-11" d="M2866.63,538.94a9.22,9.22,0,1,0,9.23,9.22A9.22,9.22,0,0,0,2866.63,538.94Z" transform="translate(0.44)"/><path class="cls-11" d="M2866.63,488.82a9.22,9.22,0,1,0,9.23,9.22A9.22,9.22,0,0,0,2866.63,488.82Z" transform="translate(0.44)"/><path class="cls-11" d="M2866.63,438.7a9.22,9.22,0,1,0,9.23,9.22A9.22,9.22,0,0,0,2866.63,438.7Z" transform="translate(0.44)"/><path class="cls-11" d="M2866.63,388.58a9.22,9.22,0,1,0,9.23,9.22A9.22,9.22,0,0,0,2866.63,388.58Z" transform="translate(0.44)"/><path class="cls-11" d="M2818,589.06a9.22,9.22,0,1,0,9.22,9.22A9.22,9.22,0,0,0,2818,589.06Z" transform="translate(0.44)"/><path class="cls-11" d="M2818,538.94a9.22,9.22,0,1,0,9.22,9.22A9.22,9.22,0,0,0,2818,538.94Z" transform="translate(0.44)"/><path class="cls-11" d="M2818,488.82a9.22,9.22,0,1,0,9.22,9.22A9.22,9.22,0,0,0,2818,488.82Z" transform="translate(0.44)"/><path class="cls-11" d="M2818,438.7a9.22,9.22,0,1,0,9.22,9.22A9.22,9.22,0,0,0,2818,438.7Z" transform="translate(0.44)"/><path class="cls-11" d="M2818,388.58a9.22,9.22,0,1,0,9.22,9.22A9.22,9.22,0,0,0,2818,388.58Z" transform="translate(0.44)"/></g><g class="cls-10"><path class="cls-11" d="M198.71,1384.93h0a9.22,9.22,0,1,0,0,18.44h0a9.21,9.21,0,0,0,8.49-5.63,9.19,9.19,0,0,0,0-7.18A9.21,9.21,0,0,0,198.71,1384.93Z" transform="translate(0.44)"/><path class="cls-11" d="M198.71,1334.81h0a9.22,9.22,0,1,0,0,18.44h0a9.21,9.21,0,0,0,8.49-5.63,9.19,9.19,0,0,0,0-7.18A9.21,9.21,0,0,0,198.71,1334.81Z" transform="translate(0.44)"/><path class="cls-11" d="M198.71,1284.69h0a9.23,9.23,0,0,0,0,18.45h0a9.22,9.22,0,0,0,8.49-5.64,9.17,9.17,0,0,0,0-7.17A9.22,9.22,0,0,0,198.71,1284.69Z" transform="translate(0.44)"/><path class="cls-11" d="M150,1384.93a9.22,9.22,0,1,0,9.22,9.22A9.22,9.22,0,0,0,150,1384.93Z" transform="translate(0.44)"/><path class="cls-11" d="M150,1334.81a9.22,9.22,0,1,0,9.22,9.22A9.22,9.22,0,0,0,150,1334.81Z" transform="translate(0.44)"/><path class="cls-11" d="M150,1284.69a9.23,9.23,0,1,0,9.22,9.22A9.22,9.22,0,0,0,150,1284.69Z" transform="translate(0.44)"/><path class="cls-11" d="M150,1234.57a9.23,9.23,0,1,0,9.22,9.23A9.22,9.22,0,0,0,150,1234.57Z" transform="translate(0.44)"/><path class="cls-11" d="M101.34,1384.93a9.22,9.22,0,1,0,9.22,9.22A9.22,9.22,0,0,0,101.34,1384.93Z" transform="translate(0.44)"/><path class="cls-11" d="M101.34,1334.81a9.22,9.22,0,1,0,9.22,9.22A9.22,9.22,0,0,0,101.34,1334.81Z" transform="translate(0.44)"/><path class="cls-11" d="M101.34,1284.69a9.23,9.23,0,1,0,9.22,9.22A9.22,9.22,0,0,0,101.34,1284.69Z" transform="translate(0.44)"/><path class="cls-11" d="M101.34,1234.57a9.23,9.23,0,1,0,9.22,9.23A9.22,9.22,0,0,0,101.34,1234.57Z" transform="translate(0.44)"/><path class="cls-11" d="M101.34,1184.46a9.22,9.22,0,1,0,9.22,9.22A9.22,9.22,0,0,0,101.34,1184.46Z" transform="translate(0.44)"/><path class="cls-11" d="M296.08,1384.93a9.22,9.22,0,1,0,9.22,9.22A9.22,9.22,0,0,0,296.08,1384.93Z" transform="translate(0.44)"/><path class="cls-11" d="M247.39,1384.93a9.22,9.22,0,1,0,9.22,9.22A9.22,9.22,0,0,0,247.39,1384.93Z" transform="translate(0.44)"/><path class="cls-11" d="M247.39,1334.81a9.22,9.22,0,1,0,9.22,9.22A9.22,9.22,0,0,0,247.39,1334.81Z" transform="translate(0.44)"/></g><path class="cls-12" d="M3000.35,1809.71c-47.5-15.57-103.41-11.11-149.55,6.13-52.63,19.66-98.63,52.58-145.34,82.94-50.41,32.75-102.57,60.18-161.56,74.09-123,29-241.63-.61-348.63-63.21-52.17-30.52-101.57-65.45-153.39-96.55a1439.85,1439.85,0,0,0-161.13-83.58c-211.3-92.92-448-131.25-675.41-80.17-108.64,24.39-213.4,68.71-303.95,133.48-47.24,33.79-89.74,73.94-139,105C709.22,1921.43,648.25,1940,585,1939.57c-121-.84-219.95-75.27-319.39-134.14C187.22,1759,92.78,1718-.44,1730.09v16.48c76.53-10.53,159.08,18,225.7,54.25,96.25,52.44,185.23,125.78,295.26,148a339.59,339.59,0,0,0,156.71-5.36c53.12-14.6,99.11-43.24,142.29-76.54,46.18-35.62,90.25-73.17,140.41-103.36a813.48,813.48,0,0,1,155.87-72.31c221.16-75.73,462-58.28,679.48,21,111.56,40.68,214.3,97.77,313.56,162.13,96.1,62.31,193.92,119.41,311.39,125.51a451.74,451.74,0,0,0,177.13-26.28c58.93-21.46,109.55-57.26,161.81-90.91,50.44-32.49,104.1-62.83,165.45-66.25,25.67-1.43,52,1.56,75.73,10.24Z" transform="translate(0.44)"/><path class="cls-12" d="M3000.35,94a221.45,221.45,0,0,1-62.59,11.86c-56.42,2.72-110.59-14.6-162.43-34.64-54.3-21-107.44-44.19-164.63-56.82a623.66,623.66,0,0,0-468.23,83c-49.91,31.61-96.16,68.34-144.37,102.31-46.7,32.92-95.69,62.68-147.15,87.93-204.87,100.54-460.92,125.92-661.12-.27-87.06-54.88-154-137.45-247.34-183.23-103.3-50.67-216.75-30.68-320,9.18C512.78,155.75,411.74,218.87,295.75,244.94c-57.9,13-119.2,16.59-176.67-.51C72.78,230.65,33.77,203.62-.44,171.12v5.7a376.47,376.47,0,0,0,37.27,31.05c43.41,31.43,94.55,48.88,148.36,51.74,114.32,6.08,223.18-44,323.48-91.67C619.51,115.3,745.85,56.51,872.15,83.7c109.56,23.58,185.75,110.47,270.54,175.52,179.4,137.64,420.54,145.64,627.68,67.74,110.69-41.62,205.78-106,300.27-175,48.24-35.18,97.64-69.08,152.41-93.84a613.33,613.33,0,0,1,168-48.23,622.73,622.73,0,0,1,177.18.74c58.88,8.79,114,27.73,169,49.75,81.39,32.63,176.85,68.76,263.11,38.42Z" transform="translate(0.44)"/><path class="cls-12" d="M3000.35,1582.06a111.73,111.73,0,0,1-24-9.55c-48.6-26.56-81.53-75.44-121.26-112.71-75.39-70.73-165.93-124.92-263.35-159.58-99.57-35.44-206.7-50.48-312.15-41.71-109.21,9.09-214.5,42.31-316.56,80.55-211.44,79.22-421.8,182.21-654.12,156.64-254.55-28-474.95-171.53-715.79-246.14C399.79,1189.67,168,1177-.44,1308.37v5c151.85-121.4,371.61-121.32,553.68-71.33,243.27,66.79,460.75,210.54,711.88,251.63,113,18.49,225.37,9.77,335.7-19.44,108.62-28.76,212.26-72.87,316.74-113.52,104-40.48,210.38-78.49,321.52-93.74,110.8-15.19,224-4.5,330.34,29.86,104.83,33.87,202.52,90.43,282.85,165.78,40.73,38.21,89.62,106.16,148.08,124.66Z" transform="translate(0.44)"/><path class="cls-13" d="M1675.75,0c-1.58,29.32,22.07,56.35,46.74,68.06,30.58,14.53,65.5,16.42,99.36,16.34,70.23-.18,140.49-7.92,210.72-3.5,60.74,3.82,117.09-3.23,159.81,48.73,35.18,42.78,50.79,98.5,57.47,153.47,0,.25.07.5.1.75,4.59,38.23-17.81,75.08-54,88.13-64.07,23.06-108,70.14-108,124.47,0,77.1,88.37,139.59,197.38,139.59s197.39-62.49,197.39-139.59c0-59.43-52.53-110.16-126.54-130.29-34.71-9.44-59.27-40.41-62-76.29L2284,152.78c.24-30.91,2.53-64.27,22.23-88.09,14.34-17.34,36-27,57.82-32.64,99.12-25.67,212.43,19.47,302.74-28.77,1.91-1,3.8-2.13,5.68-3.28Z" transform="translate(0.44)"/><path class="cls-14" d="M256.34,499.52c11.1,16.13,26.16,29.6,39.41,35.48,61.76,27.38,87.78-53,47.45-93.41-17.55-17.57-56.37-37.29-81.1-23C230,437.09,237.49,472.13,256.34,499.52Z" transform="translate(0.44)"/><path class="cls-15" d="M2066.54,366.23c.63,15.66,17.23,27.1,32.91,26.83s29.88-9.32,41.56-19.77c7.79-7,15.1-15,18.41-25,9.27-27.79-20.42-42.25-43.83-34.28C2096.48,320.55,2065.66,344.13,2066.54,366.23Z" transform="translate(0.44)"/><path class="cls-16" d="M2393.34,547.94c-21.31,10.89-36.85,30.48-23.22,50.53,8.32,12.21,25.37,16.35,39.61,12.42s25.81-14.55,34.36-26.6c9.7-13.66,14.62-38.66-6.24-44.19C2424.38,536.53,2405.44,541.76,2393.34,547.94Z" transform="translate(0.44)"/><path class="cls-17" d="M2255.79,645c-18.6-1-36.7,6.21-35.3,25,.85,11.46,10.74,20.89,21.87,23.77s23.06.24,33.51-4.56c11.85-5.43,24.89-20.38,13-32.22C2281.15,649.4,2266.36,645.56,2255.79,645Z" transform="translate(0.44)"/><path class="cls-18" d="M2600,58.05c-23.6,12-50.33,15.39-76.5,16-27.36.63-56.53-9-83.36-1.22-40.64,11.83-55.36,63.41-50.1,101.11a111.92,111.92,0,0,0,44.51,74.17c30.07,21.86,69.84,26.52,105.95,23.05,54.53-5.24,114.43-22.08,152.72-64.79,33.11-36.93,54.56-91.12,36.44-139.92-6.4-17.23-19.32-32.33-36.2-39.61C2657.17,11.21,2629.42,43.05,2600,58.05Z" transform="translate(0.44)"/><path class="cls-19" d="M1791.88,1588.07a67.83,67.83,0,0,0,13.29,52.57c12,15.38,30.15,24.7,48.22,32.14,34.45,14.17,87.72,12.51,97-32.54C1968.47,1552.44,1809.22,1486.62,1791.88,1588.07Z" transform="translate(0.44)"/><path class="cls-20" d="M344.54,775.85c-33.23-23-76.47-26.73-111-47.62-49.12-29.69-72.3-88.23-85.42-144.1S128,469.27,98.1,420.27c-34.55-56.66-67.91-74.71-98.54-69v744.3a137.26,137.26,0,0,1,18.67-18.36c45.89-36.18,111.35-24,169.77-25.58,69.94-1.94,142.73-30.12,181.8-88.17S402.1,815.63,344.54,775.85Z" transform="translate(0.44)"/></g></g></svg>